<mxfile host="app.diagrams.net" agent="Mozilla/5.0 (X11; Ubuntu; Linux x86_64; rv:137.0) Gecko/20100101 Firefox/137.0" version="26.2.13">
  <diagram name="PÃ¡gina-1" id="Bg0CyPmJgV1kY-32Y4lt">
    <mxGraphModel dx="1074" dy="1247" grid="0" gridSize="10" guides="1" tooltips="1" connect="1" arrows="1" fold="1" page="0" pageScale="1" pageWidth="827" pageHeight="1169" math="0" shadow="0">
      <root>
        <mxCell id="0" />
        <mxCell id="1" parent="0" />
        <mxCell id="BQQgJAXXC-UmATwm1wE5-3" value="" style="edgeStyle=none;curved=1;rounded=0;orthogonalLoop=1;jettySize=auto;html=1;fontSize=12;startSize=8;endSize=8;" edge="1" parent="1" source="BQQgJAXXC-UmATwm1wE5-1" target="BQQgJAXXC-UmATwm1wE5-2">
          <mxGeometry relative="1" as="geometry" />
        </mxCell>
        <mxCell id="BQQgJAXXC-UmATwm1wE5-1" value="inicio" style="ellipse;whiteSpace=wrap;html=1;" vertex="1" parent="1">
          <mxGeometry x="214" y="-184" width="120" height="80" as="geometry" />
        </mxCell>
        <mxCell id="BQQgJAXXC-UmATwm1wE5-5" value="" style="edgeStyle=none;curved=1;rounded=0;orthogonalLoop=1;jettySize=auto;html=1;fontSize=12;startSize=8;endSize=8;" edge="1" parent="1" source="BQQgJAXXC-UmATwm1wE5-2" target="BQQgJAXXC-UmATwm1wE5-4">
          <mxGeometry relative="1" as="geometry" />
        </mxCell>
        <mxCell id="BQQgJAXXC-UmATwm1wE5-2" value="ingrese numero entero" style="shape=parallelogram;perimeter=parallelogramPerimeter;whiteSpace=wrap;html=1;fixedSize=1;" vertex="1" parent="1">
          <mxGeometry x="214" y="26" width="120" height="60" as="geometry" />
        </mxCell>
        <mxCell id="BQQgJAXXC-UmATwm1wE5-7" value="" style="edgeStyle=none;curved=1;rounded=0;orthogonalLoop=1;jettySize=auto;html=1;fontSize=12;startSize=8;endSize=8;" edge="1" parent="1" source="BQQgJAXXC-UmATwm1wE5-4" target="BQQgJAXXC-UmATwm1wE5-6">
          <mxGeometry relative="1" as="geometry" />
        </mxCell>
        <mxCell id="BQQgJAXXC-UmATwm1wE5-8" value="si" style="edgeLabel;html=1;align=center;verticalAlign=middle;resizable=0;points=[];fontSize=12;" vertex="1" connectable="0" parent="BQQgJAXXC-UmATwm1wE5-7">
          <mxGeometry x="0.1276" y="2" relative="1" as="geometry">
            <mxPoint as="offset" />
          </mxGeometry>
        </mxCell>
        <mxCell id="BQQgJAXXC-UmATwm1wE5-10" value="" style="edgeStyle=none;curved=1;rounded=0;orthogonalLoop=1;jettySize=auto;html=1;fontSize=12;startSize=8;endSize=8;" edge="1" parent="1" source="BQQgJAXXC-UmATwm1wE5-4" target="BQQgJAXXC-UmATwm1wE5-9">
          <mxGeometry relative="1" as="geometry" />
        </mxCell>
        <mxCell id="BQQgJAXXC-UmATwm1wE5-14" value="no" style="edgeLabel;html=1;align=center;verticalAlign=middle;resizable=0;points=[];fontSize=12;" vertex="1" connectable="0" parent="BQQgJAXXC-UmATwm1wE5-10">
          <mxGeometry x="-0.0909" y="1" relative="1" as="geometry">
            <mxPoint as="offset" />
          </mxGeometry>
        </mxCell>
        <mxCell id="BQQgJAXXC-UmATwm1wE5-4" value="&lt;div&gt;numero ingresado /2 &lt;br&gt;&lt;/div&gt;&lt;div&gt;=0&lt;/div&gt;" style="rhombus;whiteSpace=wrap;html=1;" vertex="1" parent="1">
          <mxGeometry x="234" y="196" width="80" height="80" as="geometry" />
        </mxCell>
        <mxCell id="BQQgJAXXC-UmATwm1wE5-12" style="edgeStyle=none;curved=1;rounded=0;orthogonalLoop=1;jettySize=auto;html=1;fontSize=12;startSize=8;endSize=8;" edge="1" parent="1" source="BQQgJAXXC-UmATwm1wE5-6" target="BQQgJAXXC-UmATwm1wE5-11">
          <mxGeometry relative="1" as="geometry" />
        </mxCell>
        <mxCell id="BQQgJAXXC-UmATwm1wE5-6" value="imprima el numero es par" style="shape=parallelogram;perimeter=parallelogramPerimeter;whiteSpace=wrap;html=1;fixedSize=1;" vertex="1" parent="1">
          <mxGeometry x="-35" y="203" width="169" height="63" as="geometry" />
        </mxCell>
        <mxCell id="BQQgJAXXC-UmATwm1wE5-9" value="imprima el numero es impar" style="shape=parallelogram;perimeter=parallelogramPerimeter;whiteSpace=wrap;html=1;fixedSize=1;" vertex="1" parent="1">
          <mxGeometry x="414" y="206" width="192" height="60" as="geometry" />
        </mxCell>
        <mxCell id="BQQgJAXXC-UmATwm1wE5-11" value="fin" style="ellipse;whiteSpace=wrap;html=1;" vertex="1" parent="1">
          <mxGeometry x="234" y="432" width="120" height="80" as="geometry" />
        </mxCell>
        <mxCell id="BQQgJAXXC-UmATwm1wE5-13" style="edgeStyle=none;curved=1;rounded=0;orthogonalLoop=1;jettySize=auto;html=1;entryX=0.792;entryY=0.05;entryDx=0;entryDy=0;entryPerimeter=0;fontSize=12;startSize=8;endSize=8;" edge="1" parent="1" source="BQQgJAXXC-UmATwm1wE5-9" target="BQQgJAXXC-UmATwm1wE5-11">
          <mxGeometry relative="1" as="geometry" />
        </mxCell>
      </root>
    </mxGraphModel>
  </diagram>
</mxfile>
